#!OML:ASF H:\MichaelJackson\Top Level 1\Subject 1\Session 1\male.ASF
:FULLY-SPECIFIED
:DEGREES
295
root 4.91854 14.4968 0.104106 6.25696 -28.5689 -5.69891
lowerback 14.3436 5.81724 5.02038
upperback 1.94198 8.35988 -1.15394
thorax -5.0191 4.00296 -5.49855
lowerneck -7.70763 2.08283 2.96781
upperneck -2.11594 2.52847 -1.15336
head 0.68234 1.23036 -0.77834
rclavicle -1.82882e-014 2.14687e-014
rhumerus -0.448206 15.3927 -76.9104
rradius 53.613
rwrist 5.17423
rhand -32.0993 -31.6629
rfingers 7.12502
rthumb -5.34463 -61.5755
lclavicle -1.82882e-014 2.14687e-014
lhumerus -41.426 -7.89952 77.8018
lradius 69.8219
lwrist 23.561
lhand -32.7203 7.84508
lfingers 7.12502
lthumb -5.94418 37.7417
rfemur -32.8524 -36.4687 13.5439
rtibia 73.1772
rfoot -34.0698 -3.21648
rtoes -26.0667
lfemur -69.5607 46.1476 -24.4376
ltibia 59.0391
lfoot -15.1619 12.6535
ltoes 14.4517
296
root 4.94023 14.5013 0.314187 6.14557 -28.2427 -6.29063
lowerback 13.9033 5.92775 5.20861
upperback 1.77978 8.53693 -0.933235
thorax -4.93709 4.09083 -5.35215
lowerneck -7.82062 1.97352 3.12381
upperneck -1.61125 2.36587 -1.06873
head 0.8587 1.15271 -0.781691
rclavicle 3.88624e-014 -2.22639e-014
rhumerus -0.0352212 17.1852 -76.1814
rradius 54.7312
rwrist 5.1932
rhand -31.6874 -30.5339
rfingers 7.12502
rthumb -4.94685 -60.4561
lclavicle 3.88624e-014 -2.22639e-014
lhumerus -42.1016 -7.25978 77.5203
lradius 68.7953
lwrist 23.054
lhand -32.8445 7.48984
lfingers 7.12502
lthumb -6.06405 37.3831
rfemur -30.6074 -37.7926 12.4478
rtibia 72.2276
rfoot -34.48 -2.47375
rtoes -27.5699
lfemur -68.9557 46.6803 -23.7375
ltibia 57.0852
lfoot -14.8716 14.5626
ltoes 15.029
297
root 4.95888 14.5085 0.530955 5.99225 -27.6794 -6.99604
lowerback 13.4261 6.00808 5.42628
upperback 1.60772 8.67932 -0.635749
thorax -4.85717 4.16121 -5.13174
lowerneck -7.88712 1.8234 3.29774
upperneck -1.03126 2.14679 -0.943886
head 1.05052 1.04917 -0.778338
rclavicle -5.47652e-014 -3.57812e-015
rhumerus 0.100548 18.7974 -75.3699
rradius 56.0369
rwrist 5.08626
rhand -31.1375 -29.4138
rfingers 7.12502
rthumb -4.41591 -59.3477
lclavicle -5.47652e-014 -3.57812e-015
lhumerus -42.8764 -6.78113 77.3694
lradius 67.9085
lwrist 22.9862
lhand -32.5445 7.19079
lfingers 7.12502
lthumb -5.77442 37.0921
rfemur -28.0308 -38.924 11.253
rtibia 71.1843
rfoot -34.7761 -1.77302
rtoes -29.2123
lfemur -68.3192 47.089 -22.9336
ltibia 55.5104
lfoot -14.645 16.2931
ltoes 15.6838
298
root 4.97409 14.5185 0.755274 5.79191 -26.8663 -7.80854
lowerback 12.8882 6.05813 5.64595
upperback 1.42309 8.78094 -0.256078
thorax -4.77479 4.21182 -4.81437
lowerneck -7.8939 1.62737 3.48243
upperneck -0.378494 1.86457 -0.77026
head 1.25455 0.9172 -0.764848
rclavicle -8.24956e-014 1.35174e-014
rhumerus -0.0829682 20.2035 -74.5099
rradius 57.5456
rwrist 4.8158
rhand -30.4224 -28.325
rfingers 7.12502
rthumb -3.72537 -58.2722
lclavicle -8.24956e-014 1.35174e-014
lhumerus -43.7345 -6.46773 77.3632
lradius 67.1454
lwrist 23.2879
lhand -31.8803 7.05225
lfingers 7.12502
lthumb -5.13316 36.9701
rfemur -25.1563 -39.8822 10.0217
rtibia 70.0565
rfoot -34.8749 -1.28695
rtoes -30.9921
lfemur -67.68 47.3808 -22.0836
ltibia 54.2814
lfoot -14.4717 17.8061
ltoes 16.2822
299
root 4.98575 14.5325 0.987749 5.53174 -25.8033 -8.70442
lowerback 12.2751 6.07947 5.82937
upperback 1.22067 8.83655 0.199312
thorax -4.69247 4.2407 -4.38567
lowerneck -7.84357 1.37939 3.67168
upperneck 0.354823 1.50997 -0.525368
head 1.4735 0.75338 -0.733469
rclavicle -1.2921e-014 1.31198e-014
rhumerus -0.629726 21.3766 -73.6434
rradius 59.2661
rwrist 4.33782
rhand -29.5213 -27.233
rfingers 7.12502
rthumb -2.85516 -57.1936
lclavicle -1.2921e-014 1.31198e-014
lhumerus -44.6551 -6.31584 77.4991
lradius 66.4823
lwrist 23.8348
lhand -30.8872 7.1701
lfingers 7.12502
lthumb -4.17424 37.1089
rfemur -22.0186 -40.6673 8.79561
rtibia 68.8484
rfoot -34.6965 -1.16648
rtoes -32.9459
lfemur -67.0201 47.5556 -21.2208
ltibia 53.3376
lfoot -14.3519 19.0594
ltoes 16.8461
300
root 4.99365 14.5521 1.22882 5.18679 -24.5048 -9.66772
lowerback 11.589 6.07441 5.94218
upperback 1.00441 8.84391 0.726322
thorax -4.61089 4.24766 -3.83306
lowerneck -7.7561 1.07663 3.85666
upperneck 1.18033 1.07699 -0.199089
head 1.71513 0.555976 -0.679688
rclavicle -1.14301e-013 -1.63003e-014
rhumerus -1.55826 22.294 -72.8038
rradius 61.2047
rwrist 3.61127
rhand -28.421 -26.1616
rfingers 7.12502
rthumb -1.79253 -56.1338
lclavicle -1.14301e-013 -1.63003e-014
lhumerus -45.6091 -6.30568 77.7728
lradius 65.8952
lwrist 24.4995
lhand -29.6099 7.56944
lfingers 7.12502
lthumb -2.94074 37.5289
rfemur -18.6386 -41.219 7.60483
rtibia 67.5626
rfoot -34.1807 -1.45916
rtoes -35.0629
lfemur -66.2594 47.6129 -20.3209
ltibia 52.5964
lfoot -14.2141 20.0219
ltoes 17.3768
